<?xml version="1.0" encoding="UTF-8"?>
<svg xmlns="http://www.w3.org/2000/svg" xmlns:xlink="http://www.w3.org/1999/xlink" width="512" height="512" viewBox="0 0 58 59" version="1.1"><!-- Generator: Sketch 51.3 (57544) - http://www.bohemiancoding.com/sketch --><title>047 - Apex</title><desc>Created with Sketch.</desc><defs/><g id="Page-1" stroke="none" stroke-width="1" fill="none" fill-rule="evenodd"><g id="047---Apex" fill-rule="nonzero"><path d="M58,11.89 L58,30.8 C52.32,26.82 43.285,27.628 40,21 C35.292,11.5 50.56,13.44 58,11.89 Z" id="Shape" fill="#71C285"/><path d="M3,0.97 C1.34314575,0.97 2.22044605e-16,2.31314575 0,3.97 L0,56 C2.22044605e-16,57.6568542 1.34314575,59 3,59 L5,59 C7.54,58.57 16.88,58.1 19.02,57.58 C18.3,55.37 27.21,52.97 31.47,50.74 C31.94,50.49 32.45,50.24 33,50 C35.07,49.1 32.63,48.14 33.78,47.16 C35.3333261,46.0140446 36.2969703,44.2369821 36.41,42.31 C36.3386393,40.5139487 35.6699934,38.7930652 34.51,37.42 C33.2873052,35.8632042 31.8612484,34.4775076 30.27,33.3 C28.8,32.18 31.29,31 30,30.292 L20.84,23.87 C19.2870939,23.1003163 17.6670037,22.4743723 16,22 C4.71,18.87 18.73,19.33 24.07,15.96 C22.59,13.2 26.1,10.85 29.48,9.32 C30.7682664,8.74530411 32.0868873,8.24122372 33.43,7.81 C34.37,7.51 35.38,7.21 36.44,6.91 C38.89,6.2 41.62,5.49 44.39,4.77 C46.37,4.25 48.36,2.74 50.29,2.22 C51.85,1.8 38.35,1.39 39.77,0.97 L3,0.97 Z" id="Shape" fill="#71C285"/><path d="M43,21 C46,24 52.32,26.82 58,30.8 L58,56 C58,57.6568542 56.6568542,59 55,59 L5,59 C7.54,58.57 9.88,58.0966667 12.02,57.58 C16.47,56.53 18.11,55.33 21.03,54.02 C23.3994363,53.0116072 25.6040164,51.6531274 27.57,49.99 C30.12,47.71 31.25,45.29 31.35,42.88 C31.3656523,40.4591452 30.6051338,38.0969816 29.18,36.14 L29.17,36.14 C27.8585784,34.2359968 26.2750702,32.5345678 24.47,31.09 C22.4300629,29.4324611 20.2052849,28.0163882 17.84,26.87 C16.9484338,26.4237535 15.9885363,26.1297004 15,26 C13.89,25.69 12.9,24.38 12,24.06 C3.77,21.18 4.25,18 9.07,14.96 C11.41,13.48 14.78,10.03 18.68,8.67 C21.27,7.75 24.09,6.87 26.99,6.04 C29.79,5.24 32.66,4.49 35.47,3.79 C37.93,3.18 40.35,2.62 42.64,2.1 C48.7,0.74 53.82,1.75 56.33,1.28 C57.3530444,1.78599225 58.0003536,2.82866403 58,3.97 L58,11.89 C50.56,13.44 37.96,15.96 43,21 Z" id="Shape" fill="#2C2F38"/><path d="M25,24 C24.966,24 24.931,24 24.9,24 C11.961,22.656 10.1,20.748 9.99,19.058 C9.79,16.108 16.658,14.014 20.767,13.027 C21.3043731,12.8983177 21.8443177,13.2296269 21.973,13.767 C22.1016823,14.3043731 21.7703731,14.8443177 21.233,14.973 C16.588,16.089 12.094,18.013 11.985,18.932 C12.004,18.991 12.604,20.712 25.103,22.005 C25.6552847,22.0326142 26.0806142,22.5027153 26.053,23.055 C26.0253857,23.6072847 25.5552847,24.0326142 25.003,24.005 L25,24 Z" id="Shape" fill="#464F5D"/><path d="M56.33,1.28 C53.82,1.75 48.7,2.74 42.64,4.1 C40.35,4.62 37.93,5.18 35.47,5.79 C32.66,6.49 29.79,7.24 26.99,8.04 C24.09,8.87 21.27,9.75 18.68,10.67 C15.3324684,11.7522197 12.1107002,13.1904492 9.07,14.96 C7.59,12.2 11.1,9.85 14.48,8.32 C15.7682664,7.74530411 17.0868873,7.24122372 18.43,6.81 C19.37,6.51 20.38,6.21 21.44,5.91 C23.89,5.2 26.62,4.49 29.39,3.77 C31.37,3.25 33.36,2.74 35.29,2.22 C36.85,1.8 38.35,1.39 39.77,0.97 L55,0.97 C55.4614445,0.968178771 55.9169155,1.07434117 56.33,1.28 Z" id="Shape" fill="#E64C3C"/><path d="M33.35,42.88 C33.25,45.29 32.12,47.71 29.57,49.99 C27.6040164,51.6531274 25.3994363,53.0116072 23.03,54.02 C19.4794276,55.5484241 15.7932709,56.740315 12.02,57.58 C11.3,55.37 12.21,52.97 16.47,50.74 C16.94,50.49 17.45,50.24 18,50 C19.7237423,49.29238 21.3342504,48.3355091 22.78,47.16 C24.3333261,46.0140446 25.2969703,44.2369821 25.41,42.31 C25.3386393,40.5139487 24.6699934,38.7930652 23.51,37.42 C22.2873052,35.8632042 20.8612484,34.4775076 19.27,33.3 C18.66,32.84 18.05,32.4 17.44,32 C16.8984667,31.6419035 16.5654156,31.0423737 16.547499,30.3933973 C16.5295825,29.7444208 16.8290487,29.1274289 17.35,28.74 L19.84,26.87 C22.2052849,28.0163882 24.4300629,29.4324611 26.47,31.09 C28.2750702,32.5345678 29.8585784,34.2359968 31.17,36.14 L31.18,36.14 C32.6051338,38.0969816 33.3656523,40.4591452 33.35,42.88 Z" id="Shape" fill="#E6E7E8"/><path d="M19.84,26.87 L14.98,30.51 C14.63,30.32 14.31,30.15 14,30 C9.92,27.96 10.94,25.45 12,24.06 C12.9,24.38 13.89,24.69 15,25 C16.6670037,25.4743723 18.2870939,26.1003163 19.84,26.87 Z" id="Shape" fill="#E6E7E8"/><path d="M11.93,33.75 C10.5978007,34.8854327 9.64222559,36.3990078 9.19,38.09 C8.80664764,36.7236157 8.19466143,35.4320205 7.38,34.27 C8.56087454,33.2312765 10.1122387,32.7153577 11.68,32.84 C11.8918875,32.8546423 12.0714016,33.0015506 12.1276666,33.2063553 C12.1839317,33.41116 12.1046675,33.6291612 11.93,33.75 Z" id="Shape" fill="#AF8066"/><path d="M29.57,49.99 C27.6040164,51.6531274 25.3994363,53.0116072 23.03,54.02 L16.47,50.74 C16.94,50.49 17.45,50.24 18,50 C19.7237423,49.29238 21.3342504,48.3355091 22.78,47.16 L29.57,49.99 Z" id="Shape" fill="#E64C3C"/><path d="M33.35,42.88 L25.41,42.31 C25.3386393,40.5139487 24.6699934,38.7930652 23.51,37.42 L31.17,36.14 L31.18,36.14 C32.6051338,38.0969816 33.3656523,40.4591452 33.35,42.88 Z" id="Shape" fill="#E64C3C"/><path d="M26.47,31.09 L19.27,33.3 C17.9090086,32.2679673 16.4752816,31.3355434 14.98,30.51 L19.84,26.87 C22.2052849,28.0163882 24.4300629,29.4324611 26.47,31.09 Z" id="Shape" fill="#E64C3C"/><path d="M26.99,8.04 C24.09,8.87 21.27,9.75 18.68,10.67 L14.48,8.32 C15.7682664,7.74530411 17.0868873,7.24122372 18.43,6.81 C19.37,6.51 20.38,6.21 21.44,5.91 L26.99,8.04 Z" id="Shape" fill="#E6E7E8"/><path d="M42.64,4.1 C40.35,4.62 37.93,5.18 35.47,5.79 L29.39,3.77 C31.37,3.25 33.36,2.74 35.29,2.22 C36.2,2.41 39.4,3.25 42.64,4.1 Z" id="Shape" fill="#E6E7E8"/><path d="M9.19,38.0900517 L6.03,38.09 C5.55305239,38.0948478 5.14073527,37.7582624 5.05,37.29 C4.71085471,35.3516667 4.04470056,33.4850825 3.08,31.77 C2.96123377,31.5752658 2.98743698,31.3251436 3.14398301,31.1592516 C3.30052904,30.9933595 3.54871349,30.9527126 3.75,31.06 C5.18932775,31.8386515 6.43110251,32.9367498 7.38,34.27 C8.19466143,35.4320205 8.80664764,36.7236157 9.19,38.0900517 Z" id="Shape" fill="#4C8056"/><path d="M7.606,49 C7.05496918,46.9392481 5.8904867,45.0946995 4.267,43.711 C4.04920331,43.5672336 3.94813775,43.3000139 4.01628381,43.0481007 C4.08442987,42.7961874 4.30642766,42.6163609 4.567,42.602 C6.47750523,42.4504791 8.36791264,43.0792921 9.807,44.345" id="Shape" fill="#AF8066"/><path d="M15.05,41.29 C13.8471481,43.4322026 13.0249631,45.7668018 12.62,48.19 C12.5291133,48.6596413 12.1183541,48.9991464 11.64,49 L7.61,49 C8.54043615,45.3526579 10.9359388,42.2515314 14.23,40.43 C14.4743444,40.2963926 14.7779747,40.3436524 14.9701518,40.5452041 C15.162329,40.7467557 15.1950848,41.0522912 15.05,41.29 Z" id="Shape" fill="#4C8056"/><path d="M32,56 C31.5409453,56.0008049 31.1403017,55.6889592 31.0284079,55.2437495 C30.9165141,54.7985398 31.1221124,54.3343283 31.527,54.118 C31.601,54.079 38.804,50.164 40.137,44.347 C40.6827231,41.5995988 39.9682236,38.752243 38.19,36.588 C37.9799278,36.2989721 37.9400077,35.9198272 38.0852771,35.5933854 C38.2305465,35.2669437 38.5389355,35.0427994 38.8942771,35.0053854 C39.2496186,34.9679715 39.5979278,35.1229721 39.808,35.412 C41.9393677,38.0408536 42.7751506,41.4890089 42.084,44.802 C40.543,51.51 32.8,55.707 32.471,55.883 C32.3258571,55.9597389 32.1641807,55.9999005 32,56 Z" id="Shape" fill="#464F5D"/></g></g></svg>
