<svg id="Capa_1" enable-background="new 0 0 512 512" height="512" viewBox="0 0 512 512" width="512" xmlns="http://www.w3.org/2000/svg"><g><path d="m504.5 166h-38.419l-35.204 14.732-120.8 150.268 12.004 15h38.419z" fill="#d40000"/><g fill="#f02e0e"><path d="m317.244 256h-93.65c-18.227 0-35.466 8.285-46.852 22.518l-53.985 67.482h76.837l24-30h45.65z"/><path d="m389.244 166h-165.65c-45.568 0-88.664 20.713-117.13 56.296l-98.964 123.704h76.837l68.978-86.222c17.08-21.35 42.938-33.778 70.279-33.778h117.65z"/><path d="m427.662 166-144 180h38.419l144-180z"/></g><path d="m324.004 252.751c-1.249-2.599-3.877-4.251-6.76-4.251h-93.65c-20.618 0-39.83 9.234-52.708 25.333l-53.986 67.482c-1.801 2.251-2.152 5.335-.903 7.934s3.877 4.251 6.76 4.251h76.837c2.278 0 4.433-1.036 5.856-2.815l21.748-27.185h42.045c2.278 0 4.433-1.036 5.856-2.815l48-60c1.803-2.251 2.154-5.335.905-7.934zm-58.365 55.749h-42.045c-2.278 0-4.433 1.036-5.856 2.815l-21.749 27.185h-57.628l44.237-55.296c10.017-12.522 24.959-19.704 40.996-19.704h78.045z"/><path d="m511.26 162.751c-1.249-2.598-3.877-4.251-6.76-4.251h-76.838c-2.278 0-4.433 1.036-5.856 2.815l-144 180c-1.801 2.251-2.152 5.335-.903 7.934 1.249 2.598 3.877 4.251 6.76 4.251h76.837c2.278 0 4.433-1.036 5.856-2.815l144-180c1.802-2.251 2.153-5.335.904-7.934zm-154.364 175.749h-57.629l132-165h57.629z"/><path d="m113.017 310.15c-3.235-2.588-7.955-2.063-10.542 1.171l-21.742 27.179h-57.628l89.215-111.52c27.19-33.987 67.748-53.48 111.274-53.48h150.045l-36 45h-114.045c-29.781 0-57.531 13.337-76.135 36.592l-26.243 32.803c-2.587 3.234-2.063 7.954 1.171 10.542s7.955 2.063 10.542-1.171l26.243-32.803c15.742-19.677 39.223-30.962 64.422-30.962h117.65c2.278 0 4.433-1.036 5.856-2.815l48-60c1.801-2.251 2.152-5.335.903-7.934-1.249-2.598-3.877-4.251-6.76-4.251h-165.65c-48.107 0-92.935 21.545-122.987 59.11l-98.962 123.704c-1.801 2.251-2.152 5.335-.903 7.934 1.249 2.598 3.876 4.251 6.76 4.251h76.837c2.278 0 4.433-1.036 5.856-2.815l23.995-29.994c2.588-3.234 2.063-7.954-1.172-10.541z"/></g></svg>